<?xml version="1.0" encoding="UTF-8" standalone="no"?>
<!-- Created with Inkscape (http://www.inkscape.org/) -->

<svg
   version="1.1"
   id="svg1"
   width="200"
   height="211.479"
   viewBox="0 0 200 211.47899"
   xmlns="http://www.w3.org/2000/svg"
   xmlns:svg="http://www.w3.org/2000/svg">
  <defs
     id="defs1">
    <clipPath
       clipPathUnits="userSpaceOnUse"
       id="clipPath466">
      <path
         d="M 0,0 H 489 V 138 H 0 Z"
         transform="matrix(1.0047393,0,0,-1,0,138)"
         id="path466" />
    </clipPath>
    <clipPath
       clipPathUnits="userSpaceOnUse"
       id="clipPath467">
      <path
         d="M 0,0 H 489 V 138 H 0 Z"
         transform="matrix(1,0,0,-1,0,138)"
         id="path467" />
    </clipPath>
    <clipPath
       clipPathUnits="userSpaceOnUse"
       id="clipPath468">
      <path
         d="M 0,0 H 489 V 138 H 0 Z"
         transform="matrix(1.0047393,0,0,-1,0,138)"
         id="path468" />
    </clipPath>
    <clipPath
       clipPathUnits="userSpaceOnUse"
       id="clipPath485">
      <path
         d="M 0,0 H 489 V 138 H 0 Z"
         transform="matrix(1.0047393,0,0,-1,0,138)"
         id="path485" />
    </clipPath>
    <clipPath
       clipPathUnits="userSpaceOnUse"
       id="clipPath486">
      <path
         d="M 0,0 H 489 V 138 H 0 Z"
         transform="matrix(1.0047393,0,0,-1,0,138)"
         id="path486" />
    </clipPath>
    <clipPath
       clipPathUnits="userSpaceOnUse"
       id="clipPath487">
      <path
         d="M 0,0 H 489 V 138 H 0 Z"
         transform="matrix(1.0047393,0,0,-1,0,138)"
         id="path487" />
    </clipPath>
    <clipPath
       clipPathUnits="userSpaceOnUse"
       id="clipPath488">
      <path
         d="M 0,0 H 489 V 138 H 0 Z"
         transform="matrix(1.0047393,0,0,-1,0,138)"
         id="path488" />
    </clipPath>
    <clipPath
       clipPathUnits="userSpaceOnUse"
       id="clipPath489">
      <path
         d="M 0,0 H 489 V 138 H 0 Z"
         transform="matrix(1.0047393,0,0,-1,0,138)"
         id="path489" />
    </clipPath>
    <clipPath
       clipPathUnits="userSpaceOnUse"
       id="clipPath490">
      <path
         d="M 0,0 H 489 V 138 H 0 Z"
         transform="matrix(1.0047393,0,0,-1,0,138)"
         id="path490" />
    </clipPath>
    <clipPath
       clipPathUnits="userSpaceOnUse"
       id="clipPath491">
      <path
         d="M 0,0 H 489 V 138 H 0 Z"
         transform="matrix(1.0047393,0,0,-1,0,138)"
         id="path491" />
    </clipPath>
    <clipPath
       clipPathUnits="userSpaceOnUse"
       id="clipPath492">
      <path
         d="M 0,0 H 489 V 138 H 0 Z"
         transform="matrix(1.0047393,0,0,-1,0,138)"
         id="path492" />
    </clipPath>
    <clipPath
       clipPathUnits="userSpaceOnUse"
       id="clipPath493">
      <path
         d="M 0,0 H 489 V 138 H 0 Z"
         transform="matrix(1.0047393,0,0,-1,0,138)"
         id="path493" />
    </clipPath>
    <clipPath
       clipPathUnits="userSpaceOnUse"
       id="clipPath494">
      <path
         d="M 0,0 H 489 V 138 H 0 Z"
         transform="matrix(1.0047393,0,0,-1,0,138)"
         id="path494" />
    </clipPath>
    <clipPath
       clipPathUnits="userSpaceOnUse"
       id="clipPath495">
      <path
         d="M 0,0 H 489 V 138 H 0 Z"
         transform="matrix(1.0047393,0,0,-1,0,138)"
         id="path495" />
    </clipPath>
    <clipPath
       clipPathUnits="userSpaceOnUse"
       id="clipPath515">
      <path
         d="M 0,0 H 489 V 138 H 0 Z"
         transform="matrix(1.0047393,0,0,-1,0,138)"
         id="path515" />
    </clipPath>
    <clipPath
       clipPathUnits="userSpaceOnUse"
       id="clipPath516">
      <path
         d="M 0,0 H 489 V 138 H 0 Z"
         transform="matrix(1.0047393,0,0,-1,0,138)"
         id="path516" />
    </clipPath>
    <clipPath
       clipPathUnits="userSpaceOnUse"
       id="clipPath520">
      <path
         d="M 0,0 H 489 V 138 H 0 Z"
         transform="matrix(1.0047393,0,0,-1,0,138)"
         id="path520" />
    </clipPath>
    <clipPath
       clipPathUnits="userSpaceOnUse"
       id="clipPath521">
      <path
         d="M 0,0 H 489 V 138 H 0 Z"
         transform="matrix(1.0047393,0,0,-1,0,138)"
         id="path521" />
    </clipPath>
    <clipPath
       clipPathUnits="userSpaceOnUse"
       id="clipPath525">
      <path
         d="M 0,0 H 489 V 138 H 0 Z"
         transform="matrix(1.0047393,0,0,-1,0,138)"
         id="path525" />
    </clipPath>
    <clipPath
       clipPathUnits="userSpaceOnUse"
       id="clipPath526">
      <path
         d="M 0,0 H 489 V 138 H 0 Z"
         transform="matrix(1.0047393,0,0,-1,0,138)"
         id="path526" />
    </clipPath>
  </defs>
  <g
     id="g2"
     transform="translate(0,-1.4999531)">
    <g
       id="g1"
       transform="translate(4.9999976,6)">
      <g
         id="g456"
         aria-label="F1&#10;replica"
         transform="matrix(1.3333333,0,0,1.3333333,42.875048,9.171229)">
        <path
           id="path456"
           d="m 4.8280937,-3.1401406 v -0.609375 h -3 V -6.2456094 H 3.128875 c 0.1171875,0 0.234375,0.011719 0.3632812,0.011719 H 5.23825 V -6.8784219 H 0.93746875 V 4.84375e-4 H 1.8280937 V -3.1401406 Z m 3.8203125,-3.609375 H 8.4491875 c -0.5859375,0.609375 -1.4179688,0.6328125 -1.8867188,0.65625 v 0.5742187 c 0.328125,-0.011719 0.8085938,-0.023437 1.3007813,-0.234375 v 5.17968753 H 6.6210625 V 4.84375e-4 H 9.8905937 V -0.57373437 H 8.6484062 Z m 0,0"
           style="fill:#000000;fill-opacity:1;fill-rule:nonzero;stroke:none" />
        <path
           id="path457"
           d="m 11.838836,0.00634375 c 0,-0.75 0.621094,-1.16015625 1.230469,-1.16015625 v -0.515625 c -0.585938,0 -1.007813,0.2929688 -1.289063,0.65625 V -1.646 h -0.527344 v 3.140625 h 0.585938 z m 4.344726,0.7265625 C 15.796844,1.0141563 15.351531,1.1079063 15.046844,1.1079063 c -0.597657,0 -1.066407,-0.5039063 -1.078125,-1.1367188 h 2.285156 c 0,-0.328125 -0.03516,-0.796875 -0.304688,-1.1835937 -0.257812,-0.3632813 -0.667968,-0.4921875 -1.019531,-0.4921875 -0.84375,0 -1.5,0.74999995 -1.5,1.6289062 0,0.890625 0.691406,1.640625 1.617188,1.640625 0.398437,0 0.820312,-0.1171875 1.171875,-0.3398437 z M 14.015594,-0.4506875 c 0.152343,-0.5625 0.574218,-0.796875 0.914062,-0.796875 0.316406,0 0.761719,0.1523438 0.902344,0.796875 z M 17.671844,1.1665 c 0.375,0.3398438 0.773437,0.3984375 1.007812,0.3984375 0.738281,0 1.371094,-0.703125 1.371094,-1.62890625 0,-0.83203125 -0.46875,-1.60546875 -1.160156,-1.60546875 -0.304688,0 -0.832032,0.09375 -1.230469,0.3984375 v -0.328125 h -0.585938 v 4.4414063 h 0.597657 z m 0,-1.9921875 c 0.164062,-0.1875 0.433593,-0.3632812 0.773437,-0.3632812 0.550781,0 0.996094,0.51562495 0.996094,1.12499995 0,0.69140625 -0.527344,1.17187505 -1.066406,1.17187505 -0.105469,0 -0.28125,-0.023437 -0.457032,-0.16406255 C 17.707,0.77978125 17.671844,0.6743125 17.671844,0.54540625 Z m 3.802734,-2.5195312 H 20.888641 V 1.494625 h 0.585937 z m 1.828125,0.058594 H 22.599578 V -2.5835 h 0.703125 z m -0.05859,1.6875 h -0.585937 v 3.09375 h 0.585937 z m 3.629883,2.33203125 C 26.52243,0.9555625 26.14743,1.0844688 25.713836,1.0844688 c -0.644531,0 -1.019531,-0.51562505 -1.019531,-1.14843755 0,-0.5390625 0.28125,-1.16015625 1.042968,-1.16015625 0.46875,0 0.691407,0.09375 1.054688,0.31640625 l 0.08203,-0.50390625 c -0.410156,-0.1992187 -0.597656,-0.2929687 -1.136719,-0.2929687 -1.042968,0 -1.652343,0.84374995 -1.652343,1.6523437 0,0.84375 0.679687,1.6171875 1.617187,1.6171875 0.492188,0 0.914063,-0.1523437 1.207031,-0.3164062 z m 3.222656,-1.2421875 c 0,-0.71484375 -0.539062,-1.19531245 -1.230468,-1.19531245 -0.433594,0 -0.773438,0.09375 -1.160157,0.2929687 L 27.74118,-0.896 c 0.234375,-0.1523437 0.574218,-0.3632812 1.125,-0.3632812 0.304687,0 0.632812,0.234375 0.632812,0.74999995 v 0.28125 c -1.03125,0.0351563 -2.050781,0.24609375 -2.050781,0.90234375 0,0.3515625 0.234375,0.890625 0.84375,0.890625 0.304687,0 0.855469,-0.058594 1.21875,-0.3398437 V 1.494625 h 0.585937 z M 29.498992,0.51025 c 0,0.12890625 0,0.31640625 -0.246094,0.45703125 -0.222656,0.12890625 -0.492187,0.14062505 -0.574218,0.14062505 -0.386719,0 -0.679688,-0.1757813 -0.679688,-0.44531255 0,-0.4453125 1.183594,-0.48046875 1.5,-0.50390625 z m 0,0"
           style="fill:#000000;fill-opacity:1;fill-rule:nonzero;stroke:none" />
      </g>
      <g
         id="g457"
         aria-label="F1&#10;ncd"
         transform="matrix(1.3333333,0,0,1.3333333,131.53238,9.171229)">
        <path
           id="path458"
           d="m 4.8272812,-3.1401406 v -0.609375 h -3 v -2.4960938 h 1.3007813 c 0.1171875,0 0.234375,0.011719 0.3632812,0.011719 H 5.2374375 V -6.8784219 H 0.93665625 V 4.84375e-4 H 1.8272812 V -3.1401406 Z m 3.8232422,-3.609375 H 8.4513047 c -0.5859375,0.609375 -1.4179688,0.6328125 -1.8867188,0.65625 v 0.5742187 c 0.328125,-0.011719 0.8085938,-0.023437 1.3007813,-0.234375 v 5.17968753 H 6.6231797 V 4.84375e-4 H 9.8927109 V -0.57373437 H 8.6505234 Z m 0,0"
           style="fill:#000000;fill-opacity:1;fill-rule:nonzero;stroke:none" />
        <path
           id="path459"
           d="m 13.900523,-0.567875 c 0,-0.5507812 -0.164062,-1.1015625 -1.019531,-1.1015625 -0.398437,0 -0.785156,0.1640625 -1.089844,0.5273438 V -1.646 h -0.5625 v 3.140625 h 0.609375 v -1.69921875 c 0,-0.45703125 0.199219,-1.00781245 0.738282,-1.00781245 0.714843,0 0.714843,0.49218745 0.714843,0.6914062 v 2.015625 h 0.609375 z m 3.615235,1.30078125 C 17.164195,0.9555625 16.789195,1.0844688 16.355602,1.0844688 c -0.644532,0 -1.019532,-0.51562505 -1.019532,-1.14843755 0,-0.5390625 0.28125,-1.16015625 1.042969,-1.16015625 0.46875,0 0.691406,0.09375 1.054688,0.31640625 l 0.08203,-0.50390625 c -0.410156,-0.1992187 -0.597656,-0.2929687 -1.136719,-0.2929687 -1.042969,0 -1.652344,0.84374995 -1.652344,1.6523437 0,0.84375 0.679688,1.6171875 1.617188,1.6171875 0.492187,0 0.914062,-0.1523437 1.207031,-0.3164062 z m 3.480469,-4.07812495 h -0.574219 v 2.0390625 c -0.457031,-0.328125 -0.902344,-0.3632813 -1.113281,-0.3632813 -0.726563,0 -1.289063,0.7265625 -1.289063,1.6171875 0,0.87890625 0.550781,1.6171875 1.277344,1.6171875 0.433594,0 0.832031,-0.1992187 1.101562,-0.4335937 V 1.494625 h 0.597657 z M 20.39857,0.6274375 c -0.175781,0.29296875 -0.445312,0.4804688 -0.773437,0.4804688 -0.492188,0 -0.996094,-0.3398438 -0.996094,-1.14843755 0,-0.87890625 0.597656,-1.17187495 1.066406,-1.17187495 0.28125,0 0.515625,0.1171875 0.703125,0.35156245 z m 0,0"
           style="fill:#000000;fill-opacity:1;fill-rule:nonzero;stroke:none" />
      </g>
      <g
         id="g459"
         aria-label="F1&#10;os"
         transform="matrix(1.3333333,0,0,1.3333333,167.29238,72.461893)">
        <path
           id="path460"
           d="m 4.8285703,-3.1413437 v -0.609375 h -3 v -2.4960938 h 1.3007813 c 0.1171875,0 0.234375,0.011719 0.3632812,0.011719 H 5.2387266 V -6.879625 H 0.93794531 V -7.1875e-4 H 1.8285703 V -3.1413437 Z m 3.8203125,-3.609375 H 8.4496641 c -0.5859375,0.609375 -1.4179688,0.6328125 -1.8867188,0.65625 V -5.52025 c 0.328125,-0.011719 0.8085938,-0.023437 1.3007813,-0.234375 v 5.1796875 H 6.6215391 V -7.1875e-4 H 9.8910703 V -0.5749375 H 8.6488828 Z m 0,0"
           style="fill:#000000;fill-opacity:1;fill-rule:nonzero;stroke:none" />
        <path
           id="path461"
           d="m 14.147906,-0.03001562 c 0,-0.92578125 -0.738281,-1.67578128 -1.640625,-1.67578128 -0.914062,0 -1.640625,0.76171878 -1.640625,1.67578128 0,0.87890625 0.738282,1.59375002 1.640625,1.59375002 0.902344,0 1.640625,-0.71484377 1.640625,-1.59375002 z M 12.507281,1.0832656 c -0.550781,0 -1.03125,-0.41015622 -1.03125,-1.19531247 0,-0.78515625 0.515625,-1.13671873 1.03125,-1.13671873 0.515625,0 1.03125,0.36328123 1.03125,1.13671873 0,0.796875 -0.503906,1.19531247 -1.03125,1.19531247 z m 4.394532,-2.578125 c -0.46875,-0.1875 -0.820313,-0.2109375 -1.066407,-0.2109375 -0.175781,0 -1.230468,0 -1.230468,0.92578128 0,0.328125 0.175781,0.50390625 0.269531,0.59765625 0.246094,0.234375 0.539062,0.29296875 0.902344,0.36328125 0.328125,0.0585938 0.703125,0.12890625 0.703125,0.46875 0,0.43359372 -0.574219,0.43359372 -0.667969,0.43359372 -0.445313,0 -0.867188,-0.15234372 -1.148438,-0.35156247 l -0.09375,0.52734377 c 0.234375,0.1171875 0.65625,0.3046875 1.242188,0.3046875 0.316406,0 0.621094,-0.046875 0.878906,-0.234375 0.257813,-0.1992188 0.339844,-0.50390627 0.339844,-0.73828127 0,-0.12890625 -0.01172,-0.3984375 -0.304688,-0.66796875 -0.257812,-0.234375 -0.515625,-0.28125 -0.84375,-0.33984375 -0.410156,-0.0820313 -0.738281,-0.140625 -0.738281,-0.4453125 0,-0.39843753 0.515625,-0.39843753 0.621094,-0.39843753 0.398437,0 0.703125,0.082031 1.042969,0.26953128 z m 0,0"
           style="fill:#000000;fill-opacity:1;fill-rule:nonzero;stroke:none" />
      </g>
      <g
         id="g461"
         aria-label="F1&#10;SNet"
         transform="matrix(1.3333333,0,0,1.3333333,-1.2502916,72.451233)">
        <path
           id="path462"
           d="m 4.8283438,-3.1392031 v -0.609375 h -3 V -6.2446719 H 3.129125 c 0.1171875,0 0.234375,0.011719 0.3632813,0.011719 H 5.2385 V -6.8774844 H 0.93771875 V 0.00142188 H 1.8283438 V -3.1392031 Z m 3.8203125,-3.609375 H 8.4494375 c -0.5859375,0.609375 -1.4179687,0.6328125 -1.8867187,0.65625 v 0.5742187 c 0.328125,-0.011719 0.8085937,-0.023437 1.3007812,-0.234375 v 5.17968753 H 6.6213125 V 0.00142188 H 9.8908438 V -0.57279687 H 8.6486563 Z m 0,0"
           style="fill:#000000;fill-opacity:1;fill-rule:nonzero;stroke:none" />
        <path
           id="path463"
           d="m 14.097875,-3.1450625 c -0.445312,-0.234375 -0.84375,-0.3398437 -1.359375,-0.3398437 -1.054687,0 -1.675781,0.703125 -1.675781,1.3710937 0,0.2929688 0.09375,0.6210938 0.433594,0.9492188 0.304687,0.28124995 0.632812,0.35156245 1.054687,0.4570312 0.585938,0.140625 0.75,0.17578125 0.949219,0.38671875 0.140625,0.12890625 0.246094,0.328125 0.246094,0.5625 0,0.43359375 -0.386719,0.87890625 -1.066407,0.87890625 -0.398437,0 -1.042968,-0.1171875 -1.59375,-0.5859375 l -0.105468,0.6210938 c 0.351562,0.2109375 0.925781,0.4804687 1.710937,0.4804687 0.960938,0 1.652344,-0.703125 1.652344,-1.4765625 0,-0.5625 -0.328125,-0.890625 -0.46875,-1.03125 -0.292969,-0.2929687 -0.609375,-0.3632812 -1.148438,-0.4921875 -0.421875,-0.09375 -0.644531,-0.1523437 -0.808593,-0.3164062 -0.09375,-0.082031 -0.257813,-0.2460938 -0.257813,-0.515625 0,-0.3867188 0.398438,-0.796875 1.066406,-0.796875 0.539063,0 0.902344,0.1757812 1.253907,0.46875 z m 2.314453,-0.1992187 h -0.9375 v 4.8398437 h 0.574219 V -2.7935 h 0.01172 l 2.285156,4.2890625 h 0.949219 v -4.8398437 h -0.585938 v 4.28906245 z m 6.588867,4.07812495 C 22.614477,1.0150938 22.169164,1.1088438 21.864477,1.1088438 c -0.597657,0 -1.066407,-0.5039063 -1.078125,-1.1367188 h 2.285156 c 0,-0.328125 -0.03516,-0.796875 -0.304688,-1.1835937 -0.257812,-0.3632813 -0.667968,-0.4921875 -1.019531,-0.4921875 -0.84375,0 -1.5,0.74999995 -1.5,1.6289062 0,0.890625 0.691406,1.640625 1.617188,1.640625 0.398437,0 0.820312,-0.1171875 1.171875,-0.3398437 z M 20.833227,-0.44975 c 0.152343,-0.5625 0.574218,-0.796875 0.914062,-0.796875 0.316406,0 0.761719,0.1523438 0.902344,0.796875 z m 3.773437,-0.7148437 h 1.03125 v -0.4335938 h -1.03125 v -0.890625 h -0.539062 v 0.890625 h -0.632813 v 0.4335938 h 0.609375 v 1.7695312 c 0,0.46875 0.117188,0.9609375 0.621094,0.9609375 0.503906,0 0.890625,-0.1640625 1.101562,-0.2578125 L 25.649633,0.86275 c -0.234375,0.1640625 -0.480469,0.2226563 -0.679688,0.2226563 -0.292968,0 -0.363281,-0.2929688 -0.363281,-0.60937505 z m 0,0"
           style="fill:#000000;fill-opacity:1;fill-rule:nonzero;stroke:none" />
      </g>
      <path
         id="path464"
         d="m 57.996098,132.26563 c -0.46875,1.21875 -1.09375,2.85937 -1.25,3.48437 -0.0781,-0.28125 -0.23437,-0.76562 -0.4375,-1.32812 l -2.07812,-5.5 -0.45313,-1.15625 h -1.5 v 9.21875 h 1.03125 V 128.75 h 0.0156 c 0.0781,0.42188 0.60937,1.875 0.95312,2.78125 l 1.96875,5.15625 h 0.96875 l 1.76563,-4.625 c 0.42187,-1.07812 0.54687,-1.40625 0.64062,-1.67187 0.14063,-0.39063 0.5,-1.34375 0.5625,-1.65625 l 0.0156,0.0156 v 8.23438 h 1.03125 v -9.21875 h -1.51563 z m 10.07813,1.8125 c 0,-0.45313 -0.0156,-1.45313 -0.53125,-2.25 -0.54688,-0.82813 -1.35938,-0.96875 -1.82813,-0.96875 -1.48437,0 -2.67187,1.40625 -2.67187,3.125 0,1.75 1.26562,3.14062 2.85937,3.14062 0.84375,0 1.59375,-0.3125 2.125,-0.6875 l -0.0937,-0.85937 c -0.82813,0.6875 -1.70313,0.73437 -2.01563,0.73437 -1.0625,0 -1.90625,-0.9375 -1.95312,-2.23437 z m -4.03125,-0.73438 c 0.20312,-1.01562 0.90625,-1.67187 1.67187,-1.67187 0.6875,0 1.42188,0.45312 1.59375,1.67187 z m 13.90234,-0.3125 c 0,-0.89062 -0.21875,-2.09375 -1.8125,-2.09375 -0.79687,0 -1.5,0.375 -1.98437,1.09375 -0.34376,-1.01562 -1.28126,-1.09375 -1.70313,-1.09375 -0.95313,0 -1.57813,0.54688 -1.9375,1.03125 V 131 h -0.95313 v 5.98438 h 1.03126 v -3.25 c 0,-0.90625 0.35937,-1.98438 1.34374,-1.98438 1.23438,0 1.29688,0.85938 1.29688,1.375 v 3.85938 h 1.04688 v -3.25 c 0,-0.90625 0.35937,-1.98438 1.32812,-1.98438 1.25,0 1.3125,0.85938 1.3125,1.375 v 3.85938 h 1.03125 z m 7.32031,1.03125 c 0,-1.78125 -1.32812,-3.20312 -2.90625,-3.20312 -1.64062,0 -2.92187,1.46875 -2.92187,3.20312 0,1.75 1.34375,3.0625 2.90625,3.0625 1.59375,0 2.92187,-1.34375 2.92187,-3.0625 z m -2.92187,2.21875 c -0.92188,0 -1.875,-0.75 -1.875,-2.35937 0,-1.59375 1,-2.25 1.875,-2.25 0.92187,0 1.875,0.6875 1.875,2.25 0,1.57812 -0.89063,2.35937 -1.875,2.35937 z m 5.03515,-2.14062 c 0,-1.32813 0.96875,-2.28125 2.26563,-2.3125 v -0.89063 c -1.1875,0.0156 -1.90625,0.67188 -2.32813,1.28125 V 131 h -0.92187 v 5.98438 h 0.98437 z m 8.38282,-3.04688 h -1 c -1.71875,4.21875 -1.75,4.82813 -1.76563,5.14063 h -0.0156 c -0.0781,-0.89063 -1.14063,-3.375 -1.1875,-3.48438 l -0.71875,-1.65625 h -1.04688 l 2.57813,5.89063 c -0.15625,0.40625 -0.42188,1.07812 -0.48438,1.20312 -0.34375,0.76563 -0.5625,0.76563 -0.75,0.76563 -0.21875,0 -0.64062,-0.0625 -1.04687,-0.21875 l 0.0937,0.85937 c 0.28125,0.0781 0.65625,0.10938 0.95313,0.10938 0.46875,0 0.95312,-0.15625 1.5,-1.51563 z m 0,0"
         style="fill:#000000;fill-opacity:1;fill-rule:nonzero;stroke:none;stroke-width:1.33333"
         aria-label="Memory" />
      <path
         id="path465"
         d="m 130.73048,132.92578 v -0.8125 h -4 v -3.32813 h 1.73437 c 0.15625,0 0.3125,0.0156 0.48438,0.0156 h 2.32812 v -0.85938 h -5.73437 v 9.17188 h 1.1875 v -4.1875 z m 5.79687,0.34375 c 1.65625,0 3.0625,-1.20313 3.0625,-2.6875 0,-1.42188 -1.3125,-2.6875 -3.15625,-2.6875 h -3.29687 v 9.21875 h 1.17187 v -3.84375 z m -0.375,-4.625 c 1.45313,0 2.35938,0.8125 2.35938,1.9375 0,1.04687 -0.84375,1.92187 -2.35938,1.92187 h -1.875 v -3.85937 z m 10.35938,-0.375 c -0.71875,-0.4375 -1.45313,-0.67188 -2.42188,-0.67188 -1.84375,0 -3,1.3125 -3,2.625 0,0.5625 0.1875,1.125 0.71875,1.6875 0.54688,0.59375 1.14063,0.75 1.92188,0.9375 1.125,0.28125 1.26562,0.32813 1.625,0.65625 0.26562,0.21875 0.5625,0.65625 0.5625,1.23438 0,0.875 -0.73438,1.75 -1.9375,1.75 -0.54688,0 -1.73438,-0.125 -2.85938,-1.07813 l -0.20312,1.07813 c 1.17187,0.73437 2.23437,0.92187 3.07812,0.92187 1.75,0 2.96875,-1.34375 2.96875,-2.8125 0,-0.85937 -0.40625,-1.5 -0.70312,-1.8125 -0.625,-0.67187 -1.0625,-0.78125 -2.28125,-1.09375 -0.76563,-0.1875 -0.98438,-0.23437 -1.375,-0.57812 -0.0937,-0.0781 -0.46875,-0.46875 -0.46875,-1.04688 0,-0.79687 0.71875,-1.59375 1.9375,-1.59375 1.10937,0 1.75,0.45313 2.25,0.85938 z m 0,0"
         style="fill:#000000;fill-opacity:1;fill-rule:nonzero;stroke:none;stroke-width:1.33333"
         aria-label="FPS" />
      <g
         id="g471"
         transform="translate(-482.51562,-9.523438)">
        <path
           d="M 477.51,50.172 453.487,91.781 H 405.444 L 381.42,50.172 405.444,8.562 h 48.043 z"
           style="fill:none;stroke:#000000;stroke-width:1.18832;stroke-linecap:round;stroke-linejoin:round;stroke-miterlimit:4;stroke-dasharray:none;stroke-opacity:1"
           transform="matrix(1.32508,0,0,1.33136,13.284,12.413653)"
           clip-path="url(#clipPath466)"
           id="path469" />
        <path
           d="m 449.52,11.75 h -44.157 l -22.39,38.422 23.886,35.871 42.411,2.121 23.316,-37.992 z"
           style="fill:#2ca02c;fill-opacity:0.3;fill-rule:nonzero;stroke:none"
           transform="matrix(1.33136,0,0,1.33136,13.284,12.413653)"
           clip-path="url(#clipPath467)"
           id="path470" />
        <path
           d="m 451.65,11.75 h -44.365 l -22.497,38.422 24,35.871 42.611,2.121 23.427,-37.992 z"
           style="fill:none;stroke:#2ca02c;stroke-width:1.18832;stroke-linecap:round;stroke-linejoin:round;stroke-miterlimit:4;stroke-dasharray:none;stroke-opacity:1"
           transform="matrix(1.32508,0,0,1.33136,13.284,12.413653)"
           clip-path="url(#clipPath468)"
           id="path471" />
      </g>
      <g
         id="g513"
         transform="translate(-482.51562,-9.523438)">
        <path
           d="M 429.809,49.957 453.487,8.563"
           style="fill:none;stroke:#000000;stroke-width:0.754702;stroke-linecap:butt;stroke-linejoin:miter;stroke-miterlimit:4;stroke-dasharray:none;stroke-opacity:1"
           transform="matrix(1.32508,0,0,1.33136,13.284,12.413653)"
           clip-path="url(#clipPath485)"
           id="path503" />
        <path
           d="M 429.809,49.957 405.444,8.563"
           style="fill:none;stroke:#000000;stroke-width:0.754702;stroke-linecap:butt;stroke-linejoin:miter;stroke-miterlimit:4;stroke-dasharray:none;stroke-opacity:1"
           transform="matrix(1.32508,0,0,1.33136,13.284,12.413653)"
           clip-path="url(#clipPath486)"
           id="path504" />
        <path
           d="M 429.809,49.957 381.42,50.172"
           style="fill:none;stroke:#000000;stroke-width:0.754702;stroke-linecap:butt;stroke-linejoin:miter;stroke-miterlimit:4;stroke-dasharray:none;stroke-opacity:1"
           transform="matrix(1.32508,0,0,1.33136,13.284,12.413653)"
           clip-path="url(#clipPath487)"
           id="path505" />
        <path
           d="M 429.809,49.957 405.444,91.781"
           style="fill:none;stroke:#000000;stroke-width:0.754702;stroke-linecap:butt;stroke-linejoin:miter;stroke-miterlimit:4;stroke-dasharray:none;stroke-opacity:1"
           transform="matrix(1.32508,0,0,1.33136,13.284,12.413653)"
           clip-path="url(#clipPath488)"
           id="path506" />
        <path
           d="m 429.809,49.957 23.678,41.824"
           style="fill:none;stroke:#000000;stroke-width:0.754702;stroke-linecap:butt;stroke-linejoin:miter;stroke-miterlimit:4;stroke-dasharray:none;stroke-opacity:1"
           transform="matrix(1.32508,0,0,1.33136,13.284,12.413653)"
           clip-path="url(#clipPath489)"
           id="path507" />
        <path
           d="m 429.809,49.957 47.701,0.215"
           style="fill:none;stroke:#000000;stroke-width:0.754702;stroke-linecap:butt;stroke-linejoin:miter;stroke-miterlimit:4;stroke-dasharray:none;stroke-opacity:1"
           transform="matrix(1.32508,0,0,1.33136,13.284,12.413653)"
           clip-path="url(#clipPath490)"
           id="path508" />
        <path
           d="m 387.084,50.172 21.351,-36.527 42.505,-0.625 22.579,37.136 -39.428,7.367 -20.48,20.235 z"
           style="fill:none;stroke:#ff7f0e;stroke-width:0.754702;stroke-linecap:butt;stroke-linejoin:miter;stroke-miterlimit:4;stroke-dasharray:none;stroke-opacity:1"
           transform="matrix(1.32508,0,0,1.33136,13.284,12.413653)"
           clip-path="url(#clipPath491)"
           id="path509" />
        <path
           d="m 441.65,70.871 h -24.024 l -24.624,-20.75 18.364,-31.488 36.897,-0.934 15.299,32.41 z"
           style="fill:none;stroke:#1f77b4;stroke-width:0.754702;stroke-linecap:butt;stroke-linejoin:miter;stroke-miterlimit:4;stroke-dasharray:none;stroke-opacity:1"
           transform="matrix(1.32508,0,0,1.33136,13.284,12.413653)"
           clip-path="url(#clipPath492)"
           id="path510" />
        <path
           d="m 438.655,65.586 -17.288,-1.141 -31.037,-14.312 19.902,-33.434 37.015,2.778 12.488,30.617 z"
           style="fill:none;stroke:#d62728;stroke-width:0.754702;stroke-linecap:butt;stroke-linejoin:miter;stroke-miterlimit:4;stroke-dasharray:none;stroke-opacity:1"
           transform="matrix(1.32508,0,0,1.33136,13.284,12.413653)"
           clip-path="url(#clipPath493)"
           id="path511" />
      </g>
    </g>
    <g
       id="g531"
       transform="translate(-534.30402,6.64473)">
      <g
         id="g529"
         transform="translate(70.029705,7.822467)">
        <path
           d="m 384.929,122.715 h 16.767"
           style="fill:none;stroke:#1f77b4;stroke-width:1.50941;stroke-linecap:square;stroke-linejoin:round;stroke-miterlimit:10;stroke-dasharray:none;stroke-opacity:1"
           transform="matrix(1.32508,0,0,1.33136,13.284,12.413653)"
           clip-path="url(#clipPath494)"
           id="path512" />
        <path
           d="m 393.312,125.734 c 0.801,0 1.57,-0.32 2.135,-0.886 0.566,-0.567 0.884,-1.332 0.884,-2.133 0,-0.801 -0.318,-1.57 -0.884,-2.137 -0.565,-0.566 -1.334,-0.883 -2.135,-0.883 -0.8,0 -1.569,0.317 -2.135,0.883 -0.565,0.567 -0.883,1.336 -0.883,2.137 0,0.801 0.318,1.566 0.883,2.133 0.566,0.566 1.335,0.886 2.135,0.886 z"
           style="fill:#1f77b4;fill-opacity:1;fill-rule:nonzero;stroke:#1f77b4;stroke-width:1.00627;stroke-linecap:butt;stroke-linejoin:round;stroke-miterlimit:10;stroke-dasharray:none;stroke-opacity:1"
           transform="matrix(1.32508,0,0,1.33136,13.284,12.413653)"
           clip-path="url(#clipPath495)"
           id="path513" />
      </g>
      <path
         id="path514"
         d="m 630.37736,181.70138 h -1 l -1.04687,2.75 c -0.28125,0.73437 -0.6875,1.8125 -0.79688,2.4375 h -0.0156 c -0.0781,-0.48438 -0.42188,-1.39063 -0.54688,-1.75 l -1.29687,-3.4375 h -1.03125 l 2.28125,5.89062 h 1.17187 z m 6.4375,2.96875 c 0,-1.78125 -1.32812,-3.20313 -2.90625,-3.20313 -1.64062,0 -2.92187,1.46875 -2.92187,3.20313 0,1.75 1.34375,3.0625 2.90625,3.0625 1.59375,0 2.92187,-1.34375 2.92187,-3.0625 z m -2.92187,2.21875 c -0.92188,0 -1.875,-0.75 -1.875,-2.35938 0,-1.59375 1,-2.25 1.875,-2.25 0.92187,0 1.875,0.6875 1.875,2.25 0,1.57813 -0.89063,2.35938 -1.875,2.35938 z m 6.41015,-2.34375 2.4375,-2.84375 h -1.09374 l -1.78126,2.1875 -1.82812,-2.1875 h -1.10937 l 2.49999,2.84375 -2.57812,3.04687 h 1.09375 l 1.92187,-2.5 1.98438,2.5 h 1.10938 z m 4.75,-6.17188 h -0.98437 v 9.21875 h 1.03125 v -0.60937 c 0.3125,0.29687 0.89062,0.75 1.78125,0.75 1.32813,0 2.46875,-1.32813 2.46875,-3.10938 0,-1.64062 -0.90625,-3.07812 -2.15625,-3.07812 -0.51563,0 -1.34375,0.14062 -2.14063,0.78125 z m 0.0469,4.76563 c 0.21876,-0.3125 0.6875,-0.78125 1.42188,-0.78125 0.78125,0 1.79688,0.57812 1.79688,2.26562 0,1.73438 -1.125,2.29688 -1.9375,2.29688 -0.51563,0 -0.95313,-0.23438 -1.28126,-0.84375 z m 6.81641,-4.76563 h -1 v 9.21875 h 1 z m 7.33203,6.29688 c 0,-1.78125 -1.32812,-3.20313 -2.90625,-3.20313 -1.64062,0 -2.92187,1.46875 -2.92187,3.20313 0,1.75 1.34375,3.0625 2.90625,3.0625 1.59375,0 2.92187,-1.34375 2.92187,-3.0625 z m -2.92187,2.21875 c -0.92188,0 -1.875,-0.75 -1.875,-2.35938 0,-1.59375 1,-2.25 1.875,-2.25 0.92187,0 1.875,0.6875 1.875,2.25 0,1.57813 -0.89063,2.35938 -1.875,2.35938 z m 6.41015,-2.34375 2.4375,-2.84375 h -1.09375 l -1.78125,2.1875 -1.82812,-2.1875 h -1.10938 l 2.5,2.84375 -2.57812,3.04687 h 1.09375 l 1.92187,-2.5 1.98437,2.5 h 1.10938 z m 0,0"
         style="fill:#000000;fill-opacity:1;fill-rule:nonzero;stroke:none;stroke-width:1.33333"
         aria-label="voxblox" />
      <g
         id="g518"
         transform="translate(70.029705,7.822467)">
        <path
           d="m 384.929,113.57 h 16.767"
           style="fill:none;stroke:#ff7f0e;stroke-width:1.50941;stroke-linecap:square;stroke-linejoin:round;stroke-miterlimit:10;stroke-dasharray:none;stroke-opacity:1"
           transform="matrix(1.32508,0,0,1.33136,13.284,12.413653)"
           clip-path="url(#clipPath515)"
           id="path517" />
        <path
           d="m 393.312,116.59 c 0.801,0 1.57,-0.317 2.135,-0.883 0.566,-0.566 0.884,-1.336 0.884,-2.137 0,-0.797 -0.318,-1.566 -0.884,-2.132 -0.565,-0.567 -1.334,-0.883 -2.135,-0.883 -0.8,0 -1.569,0.316 -2.135,0.883 -0.565,0.566 -0.883,1.335 -0.883,2.132 0,0.801 0.318,1.571 0.883,2.137 0.566,0.566 1.335,0.883 2.135,0.883 z"
           style="fill:#ff7f0e;fill-opacity:1;fill-rule:nonzero;stroke:#ff7f0e;stroke-width:1.00627;stroke-linecap:butt;stroke-linejoin:round;stroke-miterlimit:10;stroke-dasharray:none;stroke-opacity:1"
           transform="matrix(1.32508,0,0,1.33136,13.284,12.413653)"
           clip-path="url(#clipPath516)"
           id="path518" />
      </g>
      <path
         id="path519"
         d="m 630.37736,169.59591 h -1 l -1.04687,2.75 c -0.28125,0.73437 -0.6875,1.8125 -0.79688,2.4375 h -0.0156 c -0.0781,-0.48438 -0.42188,-1.39063 -0.54688,-1.75 l -1.29687,-3.4375 h -1.03125 l 2.28125,5.89062 h 1.17187 z m 5.96875,-3.32813 h -1 v 3.90625 c -0.70312,-0.57812 -1.4375,-0.73437 -1.9375,-0.73437 -1.3125,0 -2.34375,1.39062 -2.34375,3.09375 0,1.75 1.01563,3.09375 2.28125,3.09375 0.4375,0 1.21875,-0.10938 1.96875,-0.82813 v 0.6875 h 1.03125 z m -1.03125,7.375 c 0,0.1875 -0.0156,0.42188 -0.4375,0.8125 -0.3125,0.26563 -0.64062,0.35938 -0.98437,0.35938 -0.82813,0 -1.79688,-0.60938 -1.79688,-2.26563 0,-1.75 1.14063,-2.29687 1.92188,-2.29687 0.59375,0 1,0.3125 1.29687,0.73437 z m 4.20704,-7.375 h -0.98438 v 9.21875 h 1.03125 v -0.60937 c 0.3125,0.29687 0.89063,0.75 1.78125,0.75 1.32812,0 2.46875,-1.32813 2.46875,-3.10938 0,-1.64062 -0.90625,-3.07812 -2.15625,-3.07812 -0.51562,0 -1.34375,0.14062 -2.14062,0.78125 z m 0.0469,4.76563 c 0.21874,-0.3125 0.6875,-0.78125 1.42187,-0.78125 0.78125,0 1.79687,0.57812 1.79687,2.26562 0,1.73438 -1.125,2.29688 -1.9375,2.29688 -0.51562,0 -0.95312,-0.23438 -1.28124,-0.84375 z m 7.08203,-0.67188 h 1.45312 v -0.76562 h -1.5 v -1.59375 c 0,-0.96875 0.89063,-1.0625 1.23438,-1.0625 0.26562,0 0.625,0.0156 1.07812,0.21875 v -0.89063 c -0.15625,-0.0312 -0.57812,-0.14062 -1.0625,-0.14062 -1.25,0 -2.20312,0.9375 -2.20312,2.26562 v 1.20313 h -0.98438 v 0.76562 h 0.98438 v 5.125 h 1 z m 7.5,-0.76562 h -1.04688 v 3.84375 c 0,1 -0.73437,1.46875 -1.59375,1.46875 -0.9375,0 -1.03125,-0.35938 -1.03125,-0.92188 v -4.39062 h -1.03125 v 4.4375 c 0,0.96875 0.29688,1.59375 1.40625,1.59375 0.70313,0 1.64063,-0.20313 2.29688,-0.78125 v 0.64062 h 1 z m 5.64453,0.1875 c -0.70313,-0.3125 -1.23438,-0.42188 -1.92188,-0.42188 -0.32812,0 -2.20312,0 -2.20312,1.73438 0,0.65625 0.39062,1.07812 0.71875,1.32812 0.40625,0.29688 0.70312,0.35938 1.4375,0.5 0.46875,0.0937 1.25,0.25 1.25,0.95313 0,0.92187 -1.04688,0.92187 -1.25,0.92187 -1.07813,0 -1.82813,-0.5 -2.0625,-0.65625 l -0.15625,0.90625 c 0.42187,0.21875 1.15625,0.57813 2.23437,0.57813 0.23438,0 0.96875,0 1.53125,-0.42188 0.42188,-0.3125 0.64063,-0.84375 0.64063,-1.42187 0,-0.73438 -0.48438,-1.17188 -0.51563,-1.21875 -0.51562,-0.46875 -0.875,-0.54688 -1.54687,-0.67188 -0.71875,-0.14062 -1.34375,-0.26562 -1.34375,-0.92187 0,-0.82813 0.96875,-0.82813 1.14062,-0.82813 0.42188,0 1.125,0.0625 1.875,0.51563 z m 2.69922,-3.32813 h -1.1875 v 1.1875 h 1.1875 z m -0.0937,3.14063 h -1 v 5.89062 h 1 z m 7.32812,2.96875 c 0,-1.78125 -1.32812,-3.20313 -2.90624,-3.20313 -1.64063,0 -2.92188,1.46875 -2.92188,3.20313 0,1.75 1.34375,3.0625 2.90625,3.0625 1.59375,0 2.92187,-1.34375 2.92187,-3.0625 z m -2.92187,2.21875 c -0.92187,0 -1.875,-0.75 -1.875,-2.35938 0,-1.59375 1,-2.25 1.875,-2.25 0.92187,0 1.875,0.6875 1.875,2.25 0,1.57813 -0.89063,2.35938 -1.875,2.35938 z m 9.11328,-3.25 c 0,-0.875 -0.20312,-2.09375 -1.82812,-2.09375 -1.1875,0 -1.84375,0.90625 -1.92188,1.01562 v -0.95312 h -0.95312 v 5.98437 h 1.03125 v -3.25 c 0,-0.875 0.32812,-1.98437 1.34375,-1.98437 1.28125,0 1.28125,0.9375 1.28125,1.375 v 3.85937 h 1.04687 z m 0,0"
         style="fill:#000000;fill-opacity:1;fill-rule:nonzero;stroke:none;stroke-width:1.33333"
         aria-label="vdbfusion" />
      <g
         id="g523"
         transform="translate(70.029705,7.822467)">
        <path
           d="m 384.929,104.43 h 16.767"
           style="fill:none;stroke:#2ca02c;stroke-width:1.50941;stroke-linecap:square;stroke-linejoin:round;stroke-miterlimit:10;stroke-dasharray:none;stroke-opacity:1"
           transform="matrix(1.32508,0,0,1.33136,13.284,12.413653)"
           clip-path="url(#clipPath520)"
           id="path522" />
        <path
           d="m 393.312,107.449 c 0.801,0 1.57,-0.316 2.135,-0.883 0.566,-0.566 0.884,-1.336 0.884,-2.136 0,-0.801 -0.318,-1.567 -0.884,-2.133 -0.565,-0.567 -1.334,-0.887 -2.135,-0.887 -0.8,0 -1.569,0.32 -2.135,0.887 -0.565,0.566 -0.883,1.332 -0.883,2.133 0,0.8 0.318,1.57 0.883,2.136 0.566,0.567 1.335,0.883 2.135,0.883 z"
           style="fill:#2ca02c;fill-opacity:1;fill-rule:nonzero;stroke:#2ca02c;stroke-width:1.00627;stroke-linecap:butt;stroke-linejoin:round;stroke-miterlimit:10;stroke-dasharray:none;stroke-opacity:1"
           transform="matrix(1.32508,0,0,1.33136,13.284,12.413653)"
           clip-path="url(#clipPath521)"
           id="path523" />
      </g>
      <path
         id="path524"
         d="m 630.68986,160.45528 c 0,-1.78125 -1.32812,-3.20313 -2.90625,-3.20313 -1.64062,0 -2.92187,1.46875 -2.92187,3.20313 0,1.75 1.34375,3.0625 2.90625,3.0625 1.59375,0 2.92187,-1.34375 2.92187,-3.0625 z m -2.92187,2.21875 c -0.92188,0 -1.875,-0.75 -1.875,-2.35938 0,-1.59375 1,-2.25 1.875,-2.25 0.92187,0 1.875,0.6875 1.875,2.25 0,1.57813 -0.89063,2.35938 -1.875,2.35938 z m 9.11328,-5.1875 h -1.04687 v 3.84375 c 0,1 -0.73438,1.46875 -1.59375,1.46875 -0.9375,0 -1.03125,-0.35938 -1.03125,-0.92188 v -4.39062 h -1.03125 v 4.4375 c 0,0.96875 0.29687,1.59375 1.40625,1.59375 0.70312,0 1.64062,-0.20313 2.29687,-0.78125 v 0.64062 h 1 z m 3.16016,3.04687 c 0,-1.32812 0.96875,-2.28125 2.26562,-2.3125 v -0.89062 c -1.1875,0.0156 -1.90625,0.67187 -2.32812,1.28125 v -1.21875 h -0.92188 v 5.98437 h 0.98438 z m 7.02343,-2.85937 c -0.70312,-0.3125 -1.23437,-0.42188 -1.92187,-0.42188 -0.32813,0 -2.20313,0 -2.20313,1.73438 0,0.65625 0.39063,1.07812 0.71875,1.32812 0.40625,0.29688 0.70313,0.35938 1.4375,0.5 0.46875,0.0937 1.25,0.25 1.25,0.95313 0,0.92187 -1.04687,0.92187 -1.25,0.92187 -1.07812,0 -1.82812,-0.5 -2.0625,-0.65625 l -0.15625,0.90625 c 0.42188,0.21875 1.15625,0.57813 2.23438,0.57813 0.23437,0 0.96875,0 1.53125,-0.42188 0.42187,-0.3125 0.64062,-0.84375 0.64062,-1.42187 0,-0.73438 -0.48437,-1.17188 -0.51562,-1.21875 -0.51563,-0.46875 -0.875,-0.54688 -1.54688,-0.67188 -0.71875,-0.14062 -1.34375,-0.26562 -1.34375,-0.92187 0,-0.82813 0.96875,-0.82813 1.14063,-0.82813 0.42187,0 1.125,0.0625 1.875,0.51563 z m 0,0"
         style="fill:#000000;fill-opacity:1;fill-rule:nonzero;stroke:none;stroke-width:1.33333"
         aria-label="ours" />
      <g
         id="g528"
         transform="translate(70.029705,7.822467)">
        <path
           d="m 384.929,131.516 h 16.767"
           style="fill:none;stroke:#d62728;stroke-width:1.50941;stroke-linecap:square;stroke-linejoin:round;stroke-miterlimit:10;stroke-dasharray:none;stroke-opacity:1"
           transform="matrix(1.32508,0,0,1.33136,13.284,12.413653)"
           clip-path="url(#clipPath525)"
           id="path527" />
        <path
           d="m 393.312,134.531 c 0.801,0 1.57,-0.316 2.135,-0.883 0.566,-0.566 0.884,-1.332 0.884,-2.132 0,-0.801 -0.318,-1.571 -0.884,-2.137 -0.565,-0.566 -1.334,-0.883 -2.135,-0.883 -0.8,0 -1.569,0.317 -2.135,0.883 -0.565,0.566 -0.883,1.336 -0.883,2.137 0,0.8 0.318,1.566 0.883,2.132 0.566,0.567 1.335,0.883 2.135,0.883 z"
           style="fill:#d62728;fill-opacity:1;fill-rule:nonzero;stroke:#d62728;stroke-width:1.00627;stroke-linecap:butt;stroke-linejoin:round;stroke-miterlimit:10;stroke-dasharray:none;stroke-opacity:1"
           transform="matrix(1.32508,0,0,1.33136,13.284,12.413653)"
           clip-path="url(#clipPath526)"
           id="path528" />
      </g>
      <path
         id="path529"
         d="m 626.58049,198.64668 c 0.40625,0.39063 1,0.75 1.79687,0.75 1.28125,0 2.45313,-1.29687 2.45313,-3.10937 0,-1.59375 -0.84375,-3.07813 -2.10938,-3.07813 -0.79687,0 -1.5625,0.28125 -2.1875,0.79688 v -0.64063 h -0.98437 v 8.46875 h 1.03125 z m 0,-3.8125 c 0.3125,-0.46875 0.84375,-0.76562 1.40625,-0.76562 1.01562,0 1.8125,1 1.8125,2.21875 0,1.375 -0.95313,2.29687 -1.9375,2.29687 -0.53125,0 -0.875,-0.26562 -1.14063,-0.60937 -0.14062,-0.20313 -0.14062,-0.23438 -0.14062,-0.46875 z m 6.91016,-4.60937 h -1.1875 v 1.1875 h 1.1875 z m -0.0937,3.14062 h -1 v 5.89063 h 1 z m 6.8789,1.9375 c 0,-0.875 -0.20312,-2.09375 -1.82812,-2.09375 -1.1875,0 -1.84375,0.90625 -1.92188,1.01563 v -0.95313 h -0.95312 v 5.98438 h 1.03125 v -3.25 c 0,-0.875 0.32812,-1.98438 1.34375,-1.98438 1.28125,0 1.28125,0.9375 1.28125,1.375 v 3.85938 h 1.04687 z m 4.75391,1.39063 v -0.76563 h -3.53125 v 0.76563 z m 5.3164,-3.14063 c -0.70312,-0.3125 -1.23437,-0.42187 -1.92187,-0.42187 -0.32813,0 -2.20313,0 -2.20313,1.73437 0,0.65625 0.39063,1.07813 0.71875,1.32813 0.40625,0.29687 0.70313,0.35937 1.4375,0.5 0.46875,0.0937 1.25,0.25 1.25,0.95312 0,0.92188 -1.04687,0.92188 -1.25,0.92188 -1.07812,0 -1.82812,-0.5 -2.0625,-0.65625 l -0.15625,0.90625 c 0.42188,0.21875 1.15625,0.57812 2.23438,0.57812 0.23437,0 0.96875,0 1.53125,-0.42187 0.42187,-0.3125 0.64062,-0.84375 0.64062,-1.42188 0,-0.73437 -0.48437,-1.17187 -0.51562,-1.21875 -0.51563,-0.46875 -0.875,-0.54687 -1.54688,-0.67187 -0.71875,-0.14063 -1.34375,-0.26563 -1.34375,-0.92188 0,-0.82812 0.96875,-0.82812 1.14063,-0.82812 0.42187,0 1.125,0.0625 1.875,0.51562 z m 2.60938,-3.51562 h -1 v 9.21875 h 1 z m 6.39062,5.375 c 0,-1.34375 -0.96875,-2.28125 -2.1875,-2.28125 -0.85937,0 -1.46875,0.21875 -2.09375,0.57812 l 0.0937,0.875 c 0.6875,-0.5 1.34375,-0.67187 2,-0.67187 0.625,0 1.15625,0.53125 1.15625,1.51562 v 0.57813 c -2,0.0156 -3.6875,0.57812 -3.6875,1.75 0,0.5625 0.35937,1.64062 1.51562,1.64062 0.1875,0 1.4375,-0.0156 2.20313,-0.625 v 0.48438 h 1 z m -1.03125,2.09375 c 0,0.25 0,0.57812 -0.45312,0.82812 -0.39063,0.25 -0.89063,0.25 -1.03125,0.25 -0.64063,0 -1.23438,-0.29687 -1.23438,-0.85937 0,-0.92188 2.14063,-1.01563 2.71875,-1.04688 z m 11.58594,-2.20313 c 0,-0.89062 -0.21875,-2.09375 -1.8125,-2.09375 -0.79687,0 -1.5,0.375 -1.98437,1.09375 -0.34375,-1.01562 -1.28125,-1.09375 -1.70313,-1.09375 -0.95312,0 -1.57812,0.54688 -1.9375,1.03125 v -0.96875 h -0.95312 v 5.98438 h 1.03125 v -3.25 c 0,-0.90625 0.35937,-1.98438 1.34375,-1.98438 1.23437,0 1.29687,0.85938 1.29687,1.375 v 3.85938 h 1.04688 v -3.25 c 0,-0.90625 0.35937,-1.98438 1.32812,-1.98438 1.25,0 1.3125,0.85938 1.3125,1.375 v 3.85938 h 1.03125 z m 0,0"
         style="fill:#000000;fill-opacity:1;fill-rule:nonzero;stroke:none;stroke-width:1.33333"
         aria-label="pin-slam" />
    </g>
  </g>
</svg>
